Coordinates
version=1
nRows=10
nColumns=23
inDegrees=yes

Units are S.I. units (second, meters, Newtons, ...)
If the header above contains a line with 'inDegrees', this indicates whether rotational values are in degrees (yes) or radians (no).

endheader
time	pelvis_tilt	pelvis_list	pelvis_rotation	pelvis_tx	pelvis_ty	pelvis_tz	hip_flexion_r	hip_adduction_r	hip_rotation_r	knee_angle_r	knee_angle_r_beta	ankle_angle_r	subtalar_angle_r	mtp_angle_r	hip_flexion_l	hip_adduction_l	hip_rotation_l	knee_angle_l	knee_angle_l_beta	ankle_angle_l	subtalar_angle_l	mtp_angle_l
      0.00000000	     -8.19086697	      4.51067981	      1.16771592	      2.31440375	      0.97965998	      1.05216119	    -11.59380757	     -3.26687326	     -9.91580293	     49.07269354	      0.85648008	     -6.16981664	      2.34361803	      0.00000000	     34.91462278	      7.34874557	      4.36919749	     20.53784488	      0.35845301	     11.54625476	     -3.55861368	      0.00000000
      0.00666667	     -7.67952525	      4.25501638	      1.68454180	      2.31442118	      0.97783167	      1.05109284	    -10.87862000	     -3.35106186	    -10.89861412	     53.71266318	      0.93746282	     -6.02593214	      0.15204280	      0.00000000	     33.48643688	      7.41601564	      4.99263628	     18.98038294	      0.33127018	     11.82330154	     -2.53121716	      0.00000000
      0.01333333	     -7.21768713	      4.17873114	      2.01166785	      2.31436747	      0.97566909	      1.05034546	    -10.17043279	     -3.51433295	    -11.39661591	     58.18842506	      1.01557960	     -6.15673311	     -2.50390998	      0.00000000	     32.09257051	      7.50604198	      5.35077916	     17.44798180	      0.30452473	     11.57240979	     -1.84015615	      0.00000000
      0.02000000	     -6.76386181	      4.13871073	      2.50564501	      2.31429011	      0.97308699	      1.04942641	     -9.55914612	     -3.66518596	    -12.01868424	     62.49538019	      1.09075015	     -6.15158865	     -5.00136775	      0.00000000	     30.82557405	      7.68203926	      5.66170049	     16.35156248	      0.28538860	     11.45739872	     -1.01449880	      0.00000000
      0.02666667	     -6.31867241	      4.17228380	      3.03640134	      2.31411312	      0.97009802	      1.04838219	     -8.94144166	     -3.84392275	    -12.53877409	     66.71964652	      1.16447751	     -6.11212938	     -7.38363218	      0.00000000	     29.70945853	      7.92929561	      5.79348047	     15.80024020	      0.27576621	     11.19765102	     -0.32432246	      0.00000000
      0.03333333	     -5.83468700	      4.30627997	      3.62963420	      2.31374696	      0.96671183	      1.04725284	     -8.33009585	     -4.08147555	    -13.01702875	     70.92522310	      1.23787867	     -5.94166483	     -9.67763936	      0.00000000	     28.72477190	      8.28390247	      5.78000608	     15.90107596	      0.27752613	     10.76467864	      0.12006248	      0.00000000
      0.04000000	     -5.62385672	      4.40442063	      4.13393849	      2.31307176	      0.96260378	      1.04626300	     -7.28244643	     -4.26175272	    -13.24656730	     75.16484890	      1.31187410	     -5.95393973	    -12.14622756	      0.00000000	     28.29424580	      8.51244543	      5.27282022	     16.79461424	      0.29312132	     10.21465093	      0.50514343	      0.00000000
      0.04666667	     -5.36707737	      4.67704796	      4.75342283	      2.31222396	      0.95801045	      1.04504766	     -6.25043469	     -4.67021353	    -13.59303114	     79.42864175	      1.38629132	     -5.73558989	    -14.11218490	      0.00000000	     27.98375965	      8.95575259	      4.69801315	     18.35025876	      0.32027243	      9.56319859	      0.59574248	      0.00000000
      0.05333333	     -5.12856487	      4.98235498	      5.38444753	      2.31114404	      0.95290780	      1.04380025	     -5.11005515	     -5.11755984	    -13.85385863	     83.69197625	      1.46070054	     -5.41974309	    -15.79294871	      0.00000000	     27.93034588	      9.37915245	      3.83954802	     20.65076759	      0.36042389	      9.05996249	      0.75204072	      0.00000000
      0.06000000	     -4.96935846	      5.33409813	      6.03350490	      2.30976525	      0.94729838	      1.04259180	     -3.78390515	     -5.62359608	    -14.02696135	     87.96074309	      1.53520458	     -5.00991219	    -17.14390610	      0.00000000	     28.04631032	      9.88173231	      3.25158424	     23.35601372	      0.40763934	      8.54568628	      0.22633449	      0.00000000
